<svg width="64" height="64" viewBox="0 0 48 48" fill="none" xmlns="http://www.w3.org/2000/svg">
  <path d="M36 8H40C41.1046 8 42 8.89543 42 10V38C42 39.1046 41.1046 40 40 40H36V8Z" fill="#9CA3AF"/>
  <path d="M36 8H38V40H36V8Z" fill="#D1D5DB"/>
  <rect x="6" y="4" width="32" height="40" rx="2" fill="#37352F"/>
  <rect x="10" y="4" width="1" height="40" fill="white" fill-opacity="0.1"/>
  <path d="M23.5 14H27.5V16.5H26V27.5C26 30 24.5 32 21.5 32C19 32 17 30.5 16.5 29L18 27.5C18.5 28.5 19.5 29.5 21 29.5C22.5 29.5 23.5 28.5 23.5 27V16.5H20.5V14H23.5Z" fill="#D9730D"/>
</svg>